<svg width="32" height="32" viewBox="0 0 32 32" fill="none" xmlns="http://www.w3.org/2000/svg">
<path d="M29.0201 8.35156H3.59009V23.2866H29.0201V8.35156Z" stroke="#007BFF" stroke-width="2"/>
<path d="M8.61011 8.27344C8.6134 8.93215 8.4865 9.58502 8.2367 10.1945C7.98691 10.8041 7.61913 11.3582 7.15451 11.8251C6.68989 12.2921 6.13758 12.6626 5.52932 12.9155C4.92105 13.1683 4.26883 13.2984 3.61011 13.2984" stroke="#007BFF" stroke-width="2"/>
<path d="M8.75488 23.2852C8.74831 21.9611 8.21942 20.6931 7.28316 19.7569C6.34689 18.8206 5.07894 18.2917 3.75488 18.2852" stroke="#007BFF" stroke-width="2"/>
<path d="M24.0801 8.27344C24.0801 9.60615 24.6095 10.8843 25.5519 11.8267C26.4942 12.769 27.7724 13.2984 29.1051 13.2984" stroke="#007BFF" stroke-width="2"/>
<path d="M24 23.2852C24.0066 21.9611 24.5355 20.6931 25.4717 19.7569C26.408 18.8206 27.6759 18.2917 29 18.2852" stroke="#007BFF" stroke-width="2"/>
<path d="M14.2351 11.1484H15.5001C16.7451 11.1484 18.1151 11.5534 18.1151 13.4484C18.1151 15.5034 16.3751 16.2884 14.5251 16.0784C14.5033 16.0759 14.4812 16.0802 14.4619 16.0909C14.4427 16.1016 14.4273 16.118 14.4179 16.1379C14.4085 16.1578 14.4056 16.1801 14.4096 16.2017C14.4136 16.2234 14.4242 16.2432 14.4401 16.2584L18.3701 20.4984" stroke="#007BFF" stroke-width="2" stroke-linecap="round"/>
<path d="M19.6201 11.1484H15.2251" stroke="#007BFF" stroke-width="2" stroke-linecap="round"/>
<path d="M14.2949 13.5156H19.6499" stroke="#007BFF" stroke-width="2" stroke-linecap="round"/>
</svg>
